<mxfile host="app.diagrams.net" agent="Mozilla/5.0 (Windows NT 10.0; Win64; x64) AppleWebKit/537.36 (KHTML, like Gecko) Chrome/127.0.0.0 Safari/537.36" version="24.7.7">
  <diagram name="Página-1" id="aU1QX_ieU27A-gvGIn4-">
    <mxGraphModel dx="3172" dy="1013" grid="1" gridSize="10" guides="1" tooltips="1" connect="1" arrows="1" fold="1" page="1" pageScale="1" pageWidth="827" pageHeight="1169" math="0" shadow="0">
      <root>
        <mxCell id="0" />
        <mxCell id="1" parent="0" />
        <mxCell id="20" value="" style="curved=1;startArrow=none;endArrow=block;entryX=0;entryY=0.625;entryDx=0;entryDy=0;entryPerimeter=0;" parent="1" edge="1">
          <mxGeometry relative="1" as="geometry">
            <Array as="points">
              <mxPoint x="160" y="180" />
              <mxPoint x="160" y="130" />
              <mxPoint x="216" y="209" />
              <mxPoint x="200" y="80" />
            </Array>
            <mxPoint x="80" y="173.87417218543044" as="sourcePoint" />
            <mxPoint x="260" y="30" as="targetPoint" />
          </mxGeometry>
        </mxCell>
        <mxCell id="aH0rdCtfdqe8Pn1iadLd-33" style="edgeStyle=orthogonalEdgeStyle;rounded=0;orthogonalLoop=1;jettySize=auto;html=1;" edge="1" parent="1" source="aH0rdCtfdqe8Pn1iadLd-25" target="aH0rdCtfdqe8Pn1iadLd-28">
          <mxGeometry relative="1" as="geometry" />
        </mxCell>
        <mxCell id="aH0rdCtfdqe8Pn1iadLd-51" style="edgeStyle=orthogonalEdgeStyle;rounded=0;orthogonalLoop=1;jettySize=auto;html=1;entryX=0;entryY=0.5;entryDx=0;entryDy=0;" edge="1" parent="1" source="aH0rdCtfdqe8Pn1iadLd-25" target="aH0rdCtfdqe8Pn1iadLd-43">
          <mxGeometry relative="1" as="geometry">
            <mxPoint x="30" y="600" as="targetPoint" />
            <Array as="points">
              <mxPoint x="30" y="200" />
              <mxPoint x="30" y="415" />
              <mxPoint x="31" y="530" />
            </Array>
          </mxGeometry>
        </mxCell>
        <mxCell id="aH0rdCtfdqe8Pn1iadLd-52" style="edgeStyle=orthogonalEdgeStyle;rounded=0;orthogonalLoop=1;jettySize=auto;html=1;" edge="1" parent="1" source="aH0rdCtfdqe8Pn1iadLd-25" target="aH0rdCtfdqe8Pn1iadLd-41">
          <mxGeometry relative="1" as="geometry">
            <mxPoint x="65" y="470" as="targetPoint" />
            <Array as="points">
              <mxPoint x="65" y="350" />
              <mxPoint x="50" y="350" />
              <mxPoint x="50" y="470" />
            </Array>
          </mxGeometry>
        </mxCell>
        <mxCell id="aH0rdCtfdqe8Pn1iadLd-53" style="edgeStyle=orthogonalEdgeStyle;rounded=0;orthogonalLoop=1;jettySize=auto;html=1;entryX=0;entryY=0.5;entryDx=0;entryDy=0;" edge="1" parent="1" source="aH0rdCtfdqe8Pn1iadLd-25" target="aH0rdCtfdqe8Pn1iadLd-47">
          <mxGeometry relative="1" as="geometry">
            <mxPoint x="-140" y="720" as="targetPoint" />
            <Array as="points">
              <mxPoint x="-180" y="200" />
              <mxPoint x="-180" y="720" />
              <mxPoint x="110" y="720" />
            </Array>
          </mxGeometry>
        </mxCell>
        <mxCell id="aH0rdCtfdqe8Pn1iadLd-25" value="Actor" style="shape=umlActor;verticalLabelPosition=bottom;verticalAlign=top;html=1;outlineConnect=0;" vertex="1" parent="1">
          <mxGeometry x="50" y="170" width="30" height="60" as="geometry" />
        </mxCell>
        <mxCell id="aH0rdCtfdqe8Pn1iadLd-26" value="Fazer login" style="ellipse;whiteSpace=wrap;html=1;" vertex="1" parent="1">
          <mxGeometry x="260" y="10" width="120" height="80" as="geometry" />
        </mxCell>
        <mxCell id="aH0rdCtfdqe8Pn1iadLd-32" style="edgeStyle=orthogonalEdgeStyle;rounded=0;orthogonalLoop=1;jettySize=auto;html=1;" edge="1" parent="1" source="aH0rdCtfdqe8Pn1iadLd-27" target="aH0rdCtfdqe8Pn1iadLd-28">
          <mxGeometry relative="1" as="geometry" />
        </mxCell>
        <mxCell id="aH0rdCtfdqe8Pn1iadLd-50" style="edgeStyle=orthogonalEdgeStyle;rounded=0;orthogonalLoop=1;jettySize=auto;html=1;entryX=1;entryY=0.5;entryDx=0;entryDy=0;" edge="1" parent="1" source="aH0rdCtfdqe8Pn1iadLd-27" target="aH0rdCtfdqe8Pn1iadLd-43">
          <mxGeometry relative="1" as="geometry" />
        </mxCell>
        <mxCell id="aH0rdCtfdqe8Pn1iadLd-27" value="Actor" style="shape=umlActor;verticalLabelPosition=bottom;verticalAlign=top;html=1;outlineConnect=0;" vertex="1" parent="1">
          <mxGeometry x="710" y="170" width="30" height="60" as="geometry" />
        </mxCell>
        <mxCell id="aH0rdCtfdqe8Pn1iadLd-28" value="Acompanhar pedido" style="ellipse;whiteSpace=wrap;html=1;" vertex="1" parent="1">
          <mxGeometry x="450" y="90" width="120" height="80" as="geometry" />
        </mxCell>
        <mxCell id="aH0rdCtfdqe8Pn1iadLd-38" value="" style="curved=1;endArrow=classic;html=1;rounded=0;" edge="1" parent="1" source="aH0rdCtfdqe8Pn1iadLd-25">
          <mxGeometry width="50" height="50" relative="1" as="geometry">
            <mxPoint x="120" y="300" as="sourcePoint" />
            <mxPoint x="280" y="290" as="targetPoint" />
            <Array as="points">
              <mxPoint x="170" y="300" />
              <mxPoint x="200" y="270" />
            </Array>
          </mxGeometry>
        </mxCell>
        <mxCell id="aH0rdCtfdqe8Pn1iadLd-39" value="Cancelar pedido" style="ellipse;whiteSpace=wrap;html=1;" vertex="1" parent="1">
          <mxGeometry x="280" y="260" width="120" height="80" as="geometry" />
        </mxCell>
        <mxCell id="aH0rdCtfdqe8Pn1iadLd-40" value="&amp;lt;&amp;lt;extend&amp;gt;&amp;gt;" style="endArrow=none;dashed=1;html=1;dashPattern=1 3;strokeWidth=2;rounded=0;entryX=0.5;entryY=1;entryDx=0;entryDy=0;" edge="1" parent="1" target="aH0rdCtfdqe8Pn1iadLd-39">
          <mxGeometry width="50" height="50" relative="1" as="geometry">
            <mxPoint x="340" y="430" as="sourcePoint" />
            <mxPoint x="340" y="350" as="targetPoint" />
          </mxGeometry>
        </mxCell>
        <mxCell id="aH0rdCtfdqe8Pn1iadLd-41" value="Fazer pedido" style="ellipse;whiteSpace=wrap;html=1;" vertex="1" parent="1">
          <mxGeometry x="280" y="440" width="120" height="80" as="geometry" />
        </mxCell>
        <mxCell id="aH0rdCtfdqe8Pn1iadLd-42" value="&amp;lt;&amp;lt;include&amp;gt;&amp;gt;" style="endArrow=none;dashed=1;html=1;dashPattern=1 3;strokeWidth=2;rounded=0;entryX=1;entryY=0.5;entryDx=0;entryDy=0;" edge="1" parent="1" target="aH0rdCtfdqe8Pn1iadLd-41">
          <mxGeometry width="50" height="50" relative="1" as="geometry">
            <mxPoint x="520" y="520" as="sourcePoint" />
            <mxPoint x="460" y="460" as="targetPoint" />
          </mxGeometry>
        </mxCell>
        <mxCell id="aH0rdCtfdqe8Pn1iadLd-43" value="Visualizar cardápio" style="ellipse;whiteSpace=wrap;html=1;" vertex="1" parent="1">
          <mxGeometry x="520" y="490" width="120" height="80" as="geometry" />
        </mxCell>
        <mxCell id="aH0rdCtfdqe8Pn1iadLd-44" value="&amp;lt;&amp;lt;include&amp;gt;&amp;gt;" style="endArrow=none;dashed=1;html=1;dashPattern=1 3;strokeWidth=2;rounded=0;" edge="1" parent="1">
          <mxGeometry width="50" height="50" relative="1" as="geometry">
            <mxPoint x="570" y="580" as="sourcePoint" />
            <mxPoint x="440" y="620" as="targetPoint" />
            <Array as="points">
              <mxPoint x="500" y="600" />
            </Array>
          </mxGeometry>
        </mxCell>
        <mxCell id="aH0rdCtfdqe8Pn1iadLd-45" value="Visualizar cardápio" style="ellipse;whiteSpace=wrap;html=1;" vertex="1" parent="1">
          <mxGeometry x="330" y="600" width="120" height="80" as="geometry" />
        </mxCell>
        <mxCell id="aH0rdCtfdqe8Pn1iadLd-46" value="&amp;lt;&amp;lt;include&amp;gt;&amp;gt;" style="endArrow=none;dashed=1;html=1;dashPattern=1 3;strokeWidth=2;rounded=0;" edge="1" parent="1">
          <mxGeometry width="50" height="50" relative="1" as="geometry">
            <mxPoint x="350" y="670" as="sourcePoint" />
            <mxPoint x="220" y="710" as="targetPoint" />
            <Array as="points">
              <mxPoint x="280" y="690" />
            </Array>
          </mxGeometry>
        </mxCell>
        <mxCell id="aH0rdCtfdqe8Pn1iadLd-47" value="Buscar restaurante" style="ellipse;whiteSpace=wrap;html=1;" vertex="1" parent="1">
          <mxGeometry x="110" y="670" width="120" height="80" as="geometry" />
        </mxCell>
        <mxCell id="aH0rdCtfdqe8Pn1iadLd-48" value="" style="curved=1;endArrow=classic;html=1;rounded=0;entryX=1;entryY=0.5;entryDx=0;entryDy=0;" edge="1" parent="1" source="aH0rdCtfdqe8Pn1iadLd-47" target="aH0rdCtfdqe8Pn1iadLd-26">
          <mxGeometry width="50" height="50" relative="1" as="geometry">
            <mxPoint x="550" y="850" as="sourcePoint" />
            <mxPoint x="820" y="120" as="targetPoint" />
            <Array as="points">
              <mxPoint x="600" y="820" />
              <mxPoint x="620" y="810" />
              <mxPoint x="1320" y="490" />
              <mxPoint x="1220" y="130" />
              <mxPoint x="1080" y="10" />
            </Array>
          </mxGeometry>
        </mxCell>
        <mxCell id="aH0rdCtfdqe8Pn1iadLd-49" value="&amp;lt;&amp;lt;Include&amp;gt;&amp;gt;" style="edgeLabel;html=1;align=center;verticalAlign=middle;resizable=0;points=[];" vertex="1" connectable="0" parent="aH0rdCtfdqe8Pn1iadLd-48">
          <mxGeometry x="-0.1658" y="19" relative="1" as="geometry">
            <mxPoint as="offset" />
          </mxGeometry>
        </mxCell>
      </root>
    </mxGraphModel>
  </diagram>
</mxfile>
